<svg width="591" height="177" viewBox="0 0 591 177" version="1.1" xmlns="http://www.w3.org/2000/svg" xmlns:xlink="http://www.w3.org/1999/xlink" xmlns:figma="http://www.figma.com/figma/ns">
<title>Group</title>
<desc>Created using Figma</desc>
<g id="Canvas" transform="matrix(3 0 0 3 -18 4449)" figma:type="canvas">
<g id="Group" style="mix-blend-mode:normal;" figma:type="frame">
<g id="Ellipse 10" style="mix-blend-mode:normal;" figma:type="ellipse">
<use xlink:href="#path0_fill" transform="translate(6.25 -1483)" fill="#606060" style="mix-blend-mode:normal;"/>
</g>
<g id="swimster" style="mix-blend-mode:normal;" figma:type="text">
<use xlink:href="#path1_fill" transform="translate(81.75 -1470)" fill="#636363" style="mix-blend-mode:normal;"/>
</g>
<g id="S" style="mix-blend-mode:normal;" figma:type="text">
<use xlink:href="#path2_fill" transform="translate(24.25 -1477)" fill="#FFFFFF" style="mix-blend-mode:normal;"/>
</g>
</g>
</g>
<defs>
<path id="path0_fill" d="M 59 29.5C 59 45.7924 45.7924 59 29.5 59C 13.2076 59 0 45.7924 0 29.5C 0 13.2076 13.2076 0 29.5 0C 45.7924 0 59 13.2076 59 29.5Z"/>
<path id="path1_fill" d="M 10.05 16.45C 9.21667 16.0167 8.4 15.8 7.6 15.8C 7.18333 15.8 6.84167 15.8833 6.575 16.05C 6.325 16.2167 6.2 16.4417 6.2 16.725C 6.2 16.875 6.21667 17 6.25 17.1C 6.3 17.1833 6.39167 17.2667 6.525 17.35C 6.675 17.4333 6.88333 17.5083 7.15 17.575C 7.43333 17.6417 7.8 17.725 8.25 17.825C 9.5 18.075 10.4333 18.525 11.05 19.175C 11.6667 19.8083 11.975 20.625 11.975 21.625C 11.975 22.375 11.825 23.05 11.525 23.65C 11.225 24.25 10.8083 24.7583 10.275 25.175C 9.74167 25.575 9.1 25.8833 8.35 26.1C 7.6 26.3333 6.775 26.45 5.875 26.45C 4.14167 26.45 2.43333 25.9583 0.75 24.975L 2.4 21.775C 3.66667 22.6417 4.86667 23.075 6 23.075C 6.41667 23.075 6.75833 22.9833 7.025 22.8C 7.29167 22.6167 7.425 22.3833 7.425 22.1C 7.425 21.9333 7.4 21.8 7.35 21.7C 7.31667 21.5833 7.23333 21.4833 7.1 21.4C 6.96667 21.3 6.76667 21.2167 6.5 21.15C 6.25 21.0667 5.91667 20.9833 5.5 20.9C 4.1 20.6167 3.11667 20.2 2.55 19.65C 2 19.0833 1.725 18.3083 1.725 17.325C 1.725 16.6083 1.85833 15.9667 2.125 15.4C 2.39167 14.8167 2.775 14.325 3.275 13.925C 3.775 13.525 4.375 13.2167 5.075 13C 5.79167 12.7833 6.58333 12.675 7.45 12.675C 8.86667 12.675 10.2417 12.95 11.575 13.5L 10.05 16.45ZM 17.7697 13.15L 20.8447 19.9L 24.0447 13.15L 26.8947 13.15L 30.0947 20.1L 33.3197 13.15L 38.3447 13.15L 31.6447 25.975L 28.6197 25.975L 25.4197 18.95L 22.3697 25.975L 19.2947 25.975L 12.7197 13.15L 17.7697 13.15ZM 44.4295 13.15L 44.4295 25.975L 39.9045 25.975L 39.9045 13.15L 44.4295 13.15ZM 39.6045 8.225C 39.6045 7.875 39.6712 7.55 39.8045 7.25C 39.9378 6.93333 40.1212 6.65833 40.3545 6.425C 40.5878 6.19167 40.8545 6.00833 41.1545 5.875C 41.4712 5.74167 41.8045 5.675 42.1545 5.675C 42.5045 5.675 42.8295 5.74167 43.1295 5.875C 43.4462 6.00833 43.7212 6.19167 43.9545 6.425C 44.1878 6.65833 44.3712 6.93333 44.5045 7.25C 44.6378 7.55 44.7045 7.875 44.7045 8.225C 44.7045 8.575 44.6378 8.90833 44.5045 9.225C 44.3712 9.525 44.1878 9.79167 43.9545 10.025C 43.7212 10.2583 43.4462 10.4417 43.1295 10.575C 42.8295 10.7083 42.5045 10.775 42.1545 10.775C 41.8045 10.775 41.4712 10.7083 41.1545 10.575C 40.8545 10.4417 40.5878 10.2583 40.3545 10.025C 40.1212 9.79167 39.9378 9.525 39.8045 9.225C 39.6712 8.90833 39.6045 8.575 39.6045 8.225ZM 47.5217 13.15L 52.0467 13.15L 52.0467 14.725C 53.28 13.5417 54.6633 12.95 56.1967 12.95C 58.0967 12.95 59.5467 13.75 60.5467 15.35C 61.5633 13.7333 63.0133 12.925 64.8967 12.925C 65.4967 12.925 66.0633 13.0167 66.5967 13.2C 67.13 13.3667 67.5883 13.6417 67.9717 14.025C 68.355 14.3917 68.655 14.875 68.8717 15.475C 69.105 16.075 69.2217 16.8 69.2217 17.65L 69.2217 25.975L 64.6967 25.975L 64.6967 19.65C 64.6967 19 64.6467 18.4667 64.5467 18.05C 64.4633 17.6333 64.33 17.3083 64.1467 17.075C 63.98 16.8417 63.78 16.6833 63.5467 16.6C 63.3133 16.5167 63.0633 16.475 62.7967 16.475C 61.3467 16.475 60.6217 17.5333 60.6217 19.65L 60.6217 25.975L 56.0967 25.975L 56.0967 19.65C 56.0967 19 56.055 18.4667 55.9717 18.05C 55.8883 17.6167 55.7633 17.275 55.5967 17.025C 55.4467 16.775 55.2467 16.6083 54.9967 16.525C 54.7467 16.425 54.455 16.375 54.1217 16.375C 53.8383 16.375 53.5717 16.4167 53.3217 16.5C 53.0717 16.5833 52.8467 16.75 52.6467 17C 52.4633 17.2333 52.3133 17.5667 52.1967 18C 52.0967 18.4167 52.0467 18.9667 52.0467 19.65L 52.0467 25.975L 47.5217 25.975L 47.5217 13.15ZM 80.8264 16.45C 79.993 16.0167 79.1764 15.8 78.3764 15.8C 77.9597 15.8 77.618 15.8833 77.3514 16.05C 77.1014 16.2167 76.9764 16.4417 76.9764 16.725C 76.9764 16.875 76.993 17 77.0264 17.1C 77.0764 17.1833 77.168 17.2667 77.3014 17.35C 77.4514 17.4333 77.6597 17.5083 77.9264 17.575C 78.2097 17.6417 78.5764 17.725 79.0264 17.825C 80.2764 18.075 81.2097 18.525 81.8264 19.175C 82.443 19.8083 82.7514 20.625 82.7514 21.625C 82.7514 22.375 82.6014 23.05 82.3014 23.65C 82.0014 24.25 81.5847 24.7583 81.0514 25.175C 80.518 25.575 79.8764 25.8833 79.1264 26.1C 78.3764 26.3333 77.5514 26.45 76.6514 26.45C 74.918 26.45 73.2097 25.9583 71.5264 24.975L 73.1764 21.775C 74.443 22.6417 75.643 23.075 76.7764 23.075C 77.193 23.075 77.5347 22.9833 77.8014 22.8C 78.068 22.6167 78.2014 22.3833 78.2014 22.1C 78.2014 21.9333 78.1764 21.8 78.1264 21.7C 78.093 21.5833 78.0097 21.4833 77.8764 21.4C 77.743 21.3 77.543 21.2167 77.2764 21.15C 77.0264 21.0667 76.693 20.9833 76.2764 20.9C 74.8764 20.6167 73.893 20.2 73.3264 19.65C 72.7764 19.0833 72.5014 18.3083 72.5014 17.325C 72.5014 16.6083 72.6347 15.9667 72.9014 15.4C 73.168 14.8167 73.5514 14.325 74.0514 13.925C 74.5514 13.525 75.1514 13.2167 75.8514 13C 76.568 12.7833 77.3597 12.675 78.2264 12.675C 79.643 12.675 81.018 12.95 82.3514 13.5L 80.8264 16.45ZM 90.4379 16.925L 90.4379 25.975L 85.9129 25.975L 85.9129 16.925L 84.4129 16.925L 84.4129 13.15L 85.9129 13.15L 85.9129 9.3L 90.4379 9.3L 90.4379 13.15L 93.0129 13.15L 93.0129 16.925L 90.4379 16.925ZM 104.333 17.7C 104.183 17.0667 103.875 16.5583 103.408 16.175C 102.942 15.7917 102.375 15.6 101.708 15.6C 101.008 15.6 100.433 15.7833 99.9832 16.15C 99.5499 16.5167 99.2749 17.0333 99.1582 17.7L 104.333 17.7ZM 99.0332 20.325C 99.0332 22.275 99.9499 23.25 101.783 23.25C 102.767 23.25 103.508 22.85 104.008 22.05L 108.383 22.05C 107.5 24.9833 105.292 26.45 101.758 26.45C 100.675 26.45 99.6832 26.2917 98.7832 25.975C 97.8832 25.6417 97.1082 25.175 96.4582 24.575C 95.8249 23.975 95.3332 23.2583 94.9832 22.425C 94.6332 21.5917 94.4582 20.6583 94.4582 19.625C 94.4582 18.5583 94.6249 17.6 94.9582 16.75C 95.2915 15.8833 95.7665 15.15 96.3832 14.55C 96.9999 13.95 97.7415 13.4917 98.6082 13.175C 99.4915 12.8417 100.483 12.675 101.583 12.675C 102.667 12.675 103.642 12.8417 104.508 13.175C 105.375 13.4917 106.108 13.9583 106.708 14.575C 107.308 15.1917 107.767 15.95 108.083 16.85C 108.4 17.7333 108.558 18.7333 108.558 19.85L 108.558 20.325L 99.0332 20.325ZM 111.145 13.15L 115.67 13.15L 115.67 15.25C 116.153 14.4833 116.745 13.9 117.445 13.5C 118.145 13.0833 118.961 12.875 119.895 12.875C 120.011 12.875 120.136 12.875 120.27 12.875C 120.42 12.875 120.586 12.8917 120.77 12.925L 120.77 17.25C 120.17 16.95 119.52 16.8 118.82 16.8C 117.77 16.8 116.978 17.1167 116.445 17.75C 115.928 18.3667 115.67 19.275 115.67 20.475L 115.67 25.975L 111.145 25.975L 111.145 13.15Z"/>
<path id="path2_fill" d="M 17.255 16.73C 16.5083 16.1233 15.7617 15.68 15.015 15.4C 14.2683 15.0967 13.545 14.945 12.845 14.945C 11.9583 14.945 11.235 15.155 10.675 15.575C 10.115 15.995 9.835 16.5433 9.835 17.22C 9.835 17.6867 9.975 18.0717 10.255 18.375C 10.535 18.6783 10.8967 18.9467 11.34 19.18C 11.8067 19.39 12.32 19.5767 12.88 19.74C 13.4633 19.9033 14.035 20.0783 14.595 20.265C 16.835 21.0117 18.4683 22.015 19.495 23.275C 20.545 24.5117 21.07 26.1333 21.07 28.14C 21.07 29.4933 20.8367 30.7183 20.37 31.815C 19.9267 32.9117 19.2617 33.8567 18.375 34.65C 17.5117 35.42 16.4383 36.015 15.155 36.435C 13.895 36.8783 12.46 37.1 10.85 37.1C 7.51333 37.1 4.42167 36.1083 1.575 34.125L 4.515 28.595C 5.54167 29.505 6.55667 30.1817 7.56 30.625C 8.56333 31.0683 9.555 31.29 10.535 31.29C 11.655 31.29 12.4833 31.0333 13.02 30.52C 13.58 30.0067 13.86 29.4233 13.86 28.77C 13.86 28.3733 13.79 28.035 13.65 27.755C 13.51 27.4517 13.2767 27.1833 12.95 26.95C 12.6233 26.6933 12.1917 26.46 11.655 26.25C 11.1417 26.04 10.5117 25.8067 9.765 25.55C 8.87833 25.27 8.00333 24.9667 7.14 24.64C 6.3 24.29 5.54167 23.835 4.865 23.275C 4.21167 22.715 3.675 22.015 3.255 21.175C 2.85833 20.3117 2.66 19.2267 2.66 17.92C 2.66 16.6133 2.87 15.435 3.29 14.385C 3.73333 13.3117 4.34 12.4017 5.11 11.655C 5.90333 10.885 6.86 10.29 7.98 9.87C 9.12333 9.45 10.395 9.24 11.795 9.24C 13.1017 9.24 14.4667 9.42667 15.89 9.8C 17.3133 10.15 18.6783 10.675 19.985 11.375L 17.255 16.73Z"/>
</defs>
</svg>
